<svg xmlns="http://www.w3.org/2000/svg" xmlns:xlink="http://www.w3.org/1999/xlink" x="0px" y="0px" viewBox="0 0 500 500" xml:space="preserve"><path d="M31,427.9c8-5.7,22.2-11.7,39.6-15.2c20.6,35,66.7,76.6,108.4,81.6c36,5.5,62.3-23.3,46.7-56.6 c-21.8-44.1-81.6-69.8-131.7-66.6c-16.8-66.4,10.9-98.7,49.8-110.3c33.8,69,135.3,199.8,217,185.7c41.5-11.9,41.9-56.6,22.5-93.7 c-37.9-73-130.5-136.9-215.9-134.5c-24-63-32.1-136.6,29.9-167C298.6,1.2,429.5,190.6,462.8,269.5c4.4,9.8,15.9,14.2,25.7,9.8 c9.8-4.4,14.2-15.9,9.7-25.7c-20.3-45.1-63.4-117.3-118-172.5c-141.4-153-327.5-59.7-252,143.6c-62.7,20.3-90.4,80.1-73.2,151.5 c-22.2,6.2-68.9,19.9-51.2,47.1C11,434.2,24.5,432.6,31,427.9z M191,455.6c-23.5,3.2-57.8-25.2-74.1-44.9c16.9,2,35.8,7.7,52.6,20.5 C182.3,441.5,187.4,446.9,191,455.6z M268.8,287.6c37.3,22.8,91.5,76.3,87.4,116c-0.9,3.4-2.4,4.4-4.8,5 c-55.9,2.2-138.1-100-165.4-150.9C216.5,261.2,242.2,271.6,268.8,287.6z"></path></svg>